<?xml version="1.0" encoding="UTF-8" standalone="no"?>
<!-- Created with Inkscape (http://www.inkscape.org/) -->

<svg
   xmlns:dc="http://purl.org/dc/elements/1.1/"
   xmlns:cc="http://creativecommons.org/ns#"
   xmlns:rdf="http://www.w3.org/1999/02/22-rdf-syntax-ns#"
   xmlns:svg="http://www.w3.org/2000/svg"
   xmlns="http://www.w3.org/2000/svg"
   xmlns:xlink="http://www.w3.org/1999/xlink"
   xmlns:sodipodi="http://sodipodi.sourceforge.net/DTD/sodipodi-0.dtd"
   xmlns:inkscape="http://www.inkscape.org/namespaces/inkscape"
   width="500mm"
   height="500mm"
   viewBox="0 0 1771.6535 1771.6535"
   id="svg2"
   version="1.1"
   inkscape:version="0.91 r13725"
   sodipodi:docname="growing_grow_110120173.svg">
  <defs
     id="defs4">
    <inkscape:path-effect
       effect="skeletal"
       id="path-effect11312"
       is_visible="true"
       pattern="m 333.49532,-1.6484219 c -38.23783,0 -55.03662,13.6284299 -58.40605,31.6400799 l 108.95478,7.09516 -2.93442,0.19106 0.0696,-0.005 -341.617104,-0.0353 0.49219,11.81349 235.094164,-4.26249 0.0945,0.46311 0.009,-0.001 c 3.7019,17.628 20.55301,30.87273 58.24303,30.87273 43.22408,0 107.40403,-38.8858 107.40403,-38.8858 0,0 -64.17995,-38.8857999 -107.40403,-38.8857999 z"
       copytype="single_stretched"
       prop_scale="1"
       scale_y_rel="false"
       spacing="0"
       normal_offset="0"
       tang_offset="0"
       prop_units="false"
       vertical_pattern="false"
       fuse_tolerance="0" />
    <inkscape:path-effect
       effect="skeletal"
       id="path-effect11303"
       is_visible="true"
       pattern="m 288.98792,3.2968438 c -38.23783,0 -55.03662,13.6284302 -58.40605,31.6400802 l 108.95478,7.09516 -2.93442,0.19106 0.0696,-0.005 -341.6170958,-0.0353 0.49219,11.81349 235.0941558,-4.26249 0.0945,0.46311 0.009,-10e-4 c 3.7019,17.628 20.55301,30.87273 58.24303,30.87273 43.22408,0 107.40403,-38.8858 107.40403,-38.8858 0,0 -64.17995,-38.8858002 -107.40403,-38.8858002 z"
       copytype="single_stretched"
       prop_scale="1"
       scale_y_rel="false"
       spacing="0"
       normal_offset="0"
       tang_offset="0"
       prop_units="false"
       vertical_pattern="false"
       fuse_tolerance="0" />
    <inkscape:path-effect
       effect="skeletal"
       id="path-effect11222"
       is_visible="true"
       pattern="m -505.6755,454.58803 c -38.23783,0 -55.03662,13.62843 -58.40605,31.64008 l 108.95478,7.09516 -2.93442,0.19106 0.0696,-0.005 -341.61709,-0.0353 0.49219,11.81349 235.09415,-4.26249 0.0945,0.46311 0.009,-10e-4 c 3.7019,17.628 20.55301,30.87273 58.24303,30.87273 43.22408,0 107.40403,-38.8858 107.40403,-38.8858 0,0 -64.17995,-38.8858 -107.40403,-38.8858 z"
       copytype="single_stretched"
       prop_scale="1"
       scale_y_rel="false"
       spacing="0"
       normal_offset="0"
       tang_offset="0"
       prop_units="false"
       vertical_pattern="false"
       fuse_tolerance="0" />
    <inkscape:path-effect
       effect="spiro"
       id="path-effect11220"
       is_visible="true" />
    <inkscape:path-effect
       fuse_tolerance="0"
       vertical_pattern="false"
       prop_units="false"
       tang_offset="0"
       normal_offset="0"
       spacing="0"
       scale_y_rel="false"
       prop_scale="1"
       copytype="single_stretched"
       pattern="m -797.07809,463.9129 c -38.23783,0 -55.03662,13.62843 -58.40605,31.64008 l 108.95479,7.09516 -2.93442,0.19106 0.0696,-0.005 -341.61703,-0.0353 0.4922,11.81349 235.09407,-4.26249 0.0945,0.46311 0.009,-0.001 c 3.7019,17.628 20.55301,30.87273 58.24303,30.87273 43.22409,0 107.40404,-38.8858 107.40404,-38.8858 0,0 -64.17995,-38.8858 -107.40404,-38.8858 z"
       is_visible="true"
       id="path-effect11216"
       effect="skeletal" />
    <inkscape:path-effect
       is_visible="true"
       id="path-effect11214"
       effect="spiro" />
    <inkscape:path-effect
       effect="skeletal"
       id="path-effect11205"
       is_visible="true"
       pattern="m -675.8546,487.22512 c -38.23783,0 -55.03662,13.62843 -58.40605,31.64008 l 108.95478,7.09516 -2.93442,0.19106 0.0696,-0.005 -341.6171,-0.0353 0.49219,11.81349 235.09416,-4.26249 0.0945,0.46311 0.009,-10e-4 c 3.7019,17.628 20.55301,30.87273 58.24303,30.87273 43.22408,0 107.40403,-38.8858 107.40403,-38.8858 0,0 -64.17995,-38.8858 -107.40403,-38.8858 z"
       copytype="single_stretched"
       prop_scale="1"
       scale_y_rel="false"
       spacing="0"
       normal_offset="0"
       tang_offset="0"
       prop_units="false"
       vertical_pattern="false"
       fuse_tolerance="0" />
    <inkscape:path-effect
       effect="spiro"
       id="path-effect11203"
       is_visible="true" />
    <inkscape:path-effect
       effect="skeletal"
       id="path-effect11194"
       is_visible="true"
       pattern="m 247.30878,-37.29953 c -38.23783,0 -55.03662,13.62843 -58.40605,31.6400797 l 108.95478,7.09516 -2.93442,0.19106 0.0696,-0.005 -341.617103,-0.0353 0.49219,11.8134903 235.094163,-4.2624903 0.0945,0.46311 0.009,-0.001 c 3.7019,17.6280003 20.55301,30.8727303 58.24303,30.8727303 43.22408,0 107.40403,-38.8858003 107.40403,-38.8858003 0,0 -64.17995,-38.8857997 -107.40403,-38.8857997 z"
       copytype="single_stretched"
       prop_scale="1"
       scale_y_rel="false"
       spacing="0"
       normal_offset="0"
       tang_offset="0"
       prop_units="false"
       vertical_pattern="false"
       fuse_tolerance="0" />
    <inkscape:path-effect
       effect="spiro"
       id="path-effect11192"
       is_visible="true" />
    <inkscape:path-effect
       effect="skeletal"
       id="path-effect11183"
       is_visible="true"
       pattern="m 349.88249,-305.3899 c -38.23783,0 -55.03662,13.62843 -58.40605,31.64008 l 108.95478,7.09516 -2.93442,0.19106 0.0696,-0.005 -341.617105,-0.0353 0.49219,11.81349 235.094165,-4.26249 0.0945,0.46311 0.009,-10e-4 c 3.7019,17.628 20.55301,30.87273 58.24303,30.87273 43.22408,0 107.40403,-38.8858 107.40403,-38.8858 0,0 -64.17995,-38.8858 -107.40403,-38.8858 z"
       copytype="single_stretched"
       prop_scale="1"
       scale_y_rel="false"
       spacing="0"
       normal_offset="0"
       tang_offset="0"
       prop_units="false"
       vertical_pattern="false"
       fuse_tolerance="0" />
    <inkscape:path-effect
       effect="spiro"
       id="path-effect11181"
       is_visible="true" />
    <inkscape:path-effect
       effect="skeletal"
       id="path-effect11172"
       is_visible="true"
       pattern="m -74.399671,-338.02699 c -38.237829,0 -55.036619,13.62843 -58.406049,31.64008 l 108.954779,7.09516 -2.93442,0.19106 0.0696,-0.005 -341.617099,-0.0353 0.49219,11.81349 235.09416,-4.26249 0.0945,0.46311 0.009,-10e-4 c 3.7019,17.628 20.55301,30.87273 58.243029,30.87273 43.22408,0 107.40403,-38.8858 107.40403,-38.8858 0,0 -64.17995,-38.8858 -107.40403,-38.8858 z"
       copytype="single_stretched"
       prop_scale="1"
       scale_y_rel="false"
       spacing="0"
       normal_offset="0"
       tang_offset="0"
       prop_units="false"
       vertical_pattern="false"
       fuse_tolerance="0" />
    <inkscape:path-effect
       effect="spiro"
       id="path-effect11170"
       is_visible="true" />
    <inkscape:path-effect
       effect="skeletal"
       id="path-effect11161"
       is_visible="true"
       pattern="m 321.90784,480.23145 c -38.23783,0 -55.03662,13.62843 -58.40605,31.64008 l 108.95478,7.09516 -2.93442,0.19106 0.0696,-0.005 -341.617102,-0.0353 0.49219,11.81349 235.094162,-4.26249 0.0945,0.46311 0.009,-0.001 c 3.7019,17.628 20.55301,30.87273 58.24303,30.87273 43.22408,0 107.40403,-38.8858 107.40403,-38.8858 0,0 -64.17995,-38.8858 -107.40403,-38.8858 z"
       copytype="single_stretched"
       prop_scale="1"
       scale_y_rel="false"
       spacing="0"
       normal_offset="0"
       tang_offset="0"
       prop_units="false"
       vertical_pattern="false"
       fuse_tolerance="0" />
    <inkscape:path-effect
       effect="spiro"
       id="path-effect11159"
       is_visible="true" />
    <inkscape:path-effect
       effect="skeletal"
       id="path-effect11150"
       is_visible="true"
       pattern="m -60.412348,-829.91455 c -38.23783,0 -55.036622,13.62843 -58.406052,31.64008 l 108.9547824,7.09516 -2.9344204,0.19106 0.0696,-0.005 -341.617102,-0.0353 0.49219,11.81349 235.09416,-4.26249 0.0945,0.46311 0.009,-10e-4 c 3.7019,17.628 20.553012,30.87273 58.243032,30.87273 43.22408,0 107.40403,-38.8858 107.40403,-38.8858 0,0 -64.17995,-38.8858 -107.40403,-38.8858 z"
       copytype="single_stretched"
       prop_scale="1"
       scale_y_rel="false"
       spacing="0"
       normal_offset="0"
       tang_offset="0"
       prop_units="false"
       vertical_pattern="false"
       fuse_tolerance="0" />
    <inkscape:path-effect
       effect="spiro"
       id="path-effect11148"
       is_visible="true" />
    <inkscape:path-effect
       effect="skeletal"
       id="path-effect11139"
       is_visible="true"
       pattern="m -370.46469,-368.33286 c -38.23783,0 -55.03662,13.62843 -58.40605,31.64008 l 108.95478,7.09516 -2.93442,0.19106 0.0696,-0.005 -341.6171,-0.0353 0.49219,11.81349 235.09416,-4.26249 0.0945,0.46311 0.009,-10e-4 c 3.7019,17.628 20.55301,30.87273 58.24303,30.87273 43.22408,0 107.40403,-38.8858 107.40403,-38.8858 0,0 -64.17995,-38.8858 -107.40403,-38.8858 z"
       copytype="single_stretched"
       prop_scale="1"
       scale_y_rel="false"
       spacing="0"
       normal_offset="0"
       tang_offset="0"
       prop_units="false"
       vertical_pattern="false"
       fuse_tolerance="0" />
    <inkscape:path-effect
       effect="spiro"
       id="path-effect11137"
       is_visible="true" />
    <inkscape:path-effect
       effect="skeletal"
       id="path-effect11128"
       is_visible="true"
       pattern="m 293.93319,0 c -38.23783,0 -55.03662,13.62843 -58.40605,31.64008 l 108.95478,7.09516 -2.93442,0.19106 0.0696,-0.005 L 0,38.886 0.49219,50.69949 235.58635,46.437 l 0.0945,0.46311 0.009,-10e-4 c 3.7019,17.628 20.55301,30.87273 58.24303,30.87273 43.22408,0 107.40403,-38.8858 107.40403,-38.8858 0,0 -64.17995,-38.8858 -107.40403,-38.8858 z"
       copytype="single_stretched"
       prop_scale="1"
       scale_y_rel="false"
       spacing="0"
       normal_offset="0"
       tang_offset="0"
       prop_units="false"
       vertical_pattern="false"
       fuse_tolerance="0" />
    <inkscape:path-effect
       effect="skeletal"
       id="path-effect3458"
       is_visible="true"
       pattern="M 0,41.902937 1e-5,0 321.736,20.951468 Z"
       copytype="single_stretched"
       prop_scale="1"
       scale_y_rel="false"
       spacing="0"
       normal_offset="0"
       tang_offset="0"
       prop_units="false"
       vertical_pattern="false"
       fuse_tolerance="0" />
    <inkscape:path-effect
       effect="skeletal"
       id="path-effect3439"
       is_visible="true"
       pattern="m 132.9804,633.41104 -371.50872,-10e-6 185.75436,-321.73599 z"
       copytype="single_stretched"
       prop_scale="1"
       scale_y_rel="false"
       spacing="0"
       normal_offset="0"
       tang_offset="0"
       prop_units="false"
       vertical_pattern="false"
       fuse_tolerance="0" />
    <inkscape:path-effect
       effect="skeletal"
       id="path-effect3421"
       is_visible="true"
       pattern="m 284.7541,-107.39958 c -38.23783,0 -55.03662,13.628428 -58.40605,31.640078 l 108.95478,7.095164 -2.93442,0.191057 0.0696,-0.0052 -157.45067,-0.0353 0.49219,11.813497 50.92773,-4.262497 0.0945,0.463115 0.009,-0.0011 c 3.70191,17.627998 20.55302,30.872723 58.24304,30.872723 43.22408,0 78.26377,-38.885797 78.26377,-38.885797 5e-5,0 -35.03964,-38.8858 -78.26372,-38.8858 z"
       copytype="single_stretched"
       prop_scale="1"
       scale_y_rel="false"
       spacing="0"
       normal_offset="0"
       tang_offset="0"
       prop_units="false"
       vertical_pattern="false"
       fuse_tolerance="0" />
    <inkscape:path-effect
       effect="skeletal"
       id="path-effect3412"
       is_visible="true"
       pattern="m 283.82824,-146.28565 c -38.23783,0 -55.03662,13.62842 -58.40605,31.64007 l 108.95478,7.09517 -2.93442,0.19105 0.0696,-0.005 -157.45067,-0.0353 0.49219,11.8135 50.92773,-4.262497 0.0945,0.463115 0.009,-0.0011 c 3.70191,17.627998 20.55302,30.872723 58.24304,30.872723 43.22408,0 78.26377,-38.885801 78.26377,-38.885801 5e-5,0 -35.03964,-38.88579 -78.26372,-38.88579 z"
       copytype="single_stretched"
       prop_scale="1"
       scale_y_rel="false"
       spacing="0"
       normal_offset="0"
       tang_offset="0"
       prop_units="false"
       vertical_pattern="false"
       fuse_tolerance="0" />
    <inkscape:path-effect
       effect="skeletal"
       id="path-effect3403"
       is_visible="true"
       pattern="m 354.26954,31.479272 c -38.23783,0 -55.03662,13.62842 -58.40606,31.640069 l 108.95479,7.095164 -2.93442,0.191057 0.0696,-0.0052 -157.45067,-0.0353 0.49218,11.813497 50.92774,-4.262497 0.0945,0.463115 0.009,-0.0011 c 3.70191,17.627998 20.55301,30.872723 58.24304,30.872723 43.22408,0 78.26377,-38.885797 78.26377,-38.885797 5e-5,0 -35.03964,-38.885801 -78.26372,-38.885801 z"
       copytype="single_stretched"
       prop_scale="1"
       scale_y_rel="false"
       spacing="0"
       normal_offset="0"
       tang_offset="0"
       prop_units="false"
       vertical_pattern="false"
       fuse_tolerance="0" />
    <inkscape:path-effect
       effect="skeletal"
       id="path-effect3394"
       is_visible="true"
       pattern="m 314.53168,-153.88845 c -38.23783,0 -55.03662,13.62842 -58.40605,31.64007 l 108.95478,7.09517 -2.93442,0.19106 0.0696,-0.005 -157.45067,-0.0353 0.49219,11.81349 50.92773,-4.26249 0.0945,0.46311 0.009,-0.001 c 3.70191,17.627998 20.55302,30.872723 58.24304,30.872723 43.22408,0 78.26377,-38.885793 78.26377,-38.885793 5e-5,0 -35.03964,-38.8858 -78.26372,-38.8858 z"
       copytype="single_stretched"
       prop_scale="1"
       scale_y_rel="false"
       spacing="0"
       normal_offset="0"
       tang_offset="0"
       prop_units="false"
       vertical_pattern="false"
       fuse_tolerance="0" />
    <inkscape:path-effect
       effect="skeletal"
       id="path-effect3373"
       is_visible="true"
       pattern="m 146.99335,-66.661844 c -71.923782,0 -103.521612,25.6345 -109.859382,59.5136695 L 242.07343,6.1975355 37.034358,19.551046 c 6.09433,34.15528 37.64101,60.07227 109.958992,60.07227 81.30271,0 147.21094,-73.1425805 147.21094,-73.1425805 0,0 -65.90823,-73.1425795 -147.21094,-73.1425795 z"
       copytype="single_stretched"
       prop_scale="1"
       scale_y_rel="false"
       spacing="0"
       normal_offset="0"
       tang_offset="0"
       prop_units="false"
       vertical_pattern="false"
       fuse_tolerance="0" />
    <inkscape:path-effect
       effect="skeletal"
       id="path-effect3364"
       is_visible="true"
       pattern="m 154.40022,-73.142857 c -71.92378,0 -103.52161,25.6345 -109.85938,59.51367 L 249.4803,-0.28347714 44.44123,13.070033 c 6.09433,34.15528 37.64101,60.07227 109.95899,60.07227 81.30271,0 147.21094,-73.14258014286 147.21094,-73.14258014286 0,0 -65.90823,-73.14257985714 -147.21094,-73.14257985714 z"
       copytype="single_stretched"
       prop_scale="1"
       scale_y_rel="false"
       spacing="0"
       normal_offset="0"
       tang_offset="0"
       prop_units="false"
       vertical_pattern="false"
       fuse_tolerance="0" />
    <inkscape:path-effect
       effect="skeletal"
       id="path-effect3355"
       is_visible="true"
       pattern="m 173.84326,-121.28752 c -71.92378,0 -103.521612,25.634497 -109.859382,59.513667 l 204.939462,13.34571 -205.039072,13.35351 c 6.09433,34.1552804 37.641012,60.07227 109.958992,60.07227 81.30271,0 147.21094,-73.14258 147.21094,-73.14258 0,0 -65.90823,-73.142577 -147.21094,-73.142577 z"
       copytype="single_stretched"
       prop_scale="1"
       scale_y_rel="false"
       spacing="0"
       normal_offset="0"
       tang_offset="0"
       prop_units="false"
       vertical_pattern="false"
       fuse_tolerance="0" />
    <linearGradient
       inkscape:collect="always"
       xlink:href="#linearGradient11503"
       id="linearGradient11509"
       x1="91.623093"
       y1="-877.44928"
       x2="53.446808"
       y2="-121.55872"
       gradientUnits="userSpaceOnUse" />
    <linearGradient
       inkscape:collect="always"
       id="linearGradient11503">
      <stop
         style="stop-color:#abc837;stop-opacity:1"
         offset="0"
         id="stop11505" />
      <stop
         style="stop-color:#112b00;stop-opacity:1"
         offset="1"
         id="stop11507" />
    </linearGradient>
    <linearGradient
       inkscape:collect="always"
       xlink:href="#linearGradient11495"
       id="linearGradient11501"
       x1="292.04861"
       y1="-801.09668"
       x2="57.264435"
       y2="-150.19093"
       gradientUnits="userSpaceOnUse" />
    <linearGradient
       inkscape:collect="always"
       id="linearGradient11495">
      <stop
         style="stop-color:#aad400;stop-opacity:1"
         offset="0"
         id="stop11497" />
      <stop
         style="stop-color:#225500;stop-opacity:1"
         offset="1"
         id="stop11499" />
    </linearGradient>
    <linearGradient
       inkscape:collect="always"
       xlink:href="#linearGradient11487"
       id="linearGradient11493"
       x1="-288.23099"
       y1="-846.9082"
       x2="36.267475"
       y2="-155.91737"
       gradientUnits="userSpaceOnUse" />
    <linearGradient
       inkscape:collect="always"
       id="linearGradient11487">
      <stop
         style="stop-color:#88aa00;stop-opacity:1"
         offset="0"
         id="stop11489" />
      <stop
         style="stop-color:#225500;stop-opacity:1"
         offset="1"
         id="stop11491" />
    </linearGradient>
    <linearGradient
       inkscape:collect="always"
       xlink:href="#linearGradient11487"
       id="linearGradient11517"
       x1="494.38297"
       y1="-610.21521"
       x2="41.993919"
       y2="-155.91737"
       gradientUnits="userSpaceOnUse" />
    <linearGradient
       inkscape:collect="always"
       xlink:href="#linearGradient10951"
       id="linearGradient11529"
       gradientUnits="userSpaceOnUse"
       x1="296.18182"
       y1="856.10547"
       x2="294.59573"
       y2="702.25256"
       gradientTransform="matrix(1.1431444,0,0,1.1431444,-356.68885,-1232.3661)" />
    <linearGradient
       inkscape:collect="always"
       id="linearGradient10951">
      <stop
         style="stop-color:#225500;stop-opacity:1;"
         offset="0"
         id="stop10953" />
      <stop
         style="stop-color:#aad400;stop-opacity:1"
         offset="1"
         id="stop10955" />
    </linearGradient>
  </defs>
  <sodipodi:namedview
     id="base"
     pagecolor="#ffffff"
     bordercolor="#666666"
     borderopacity="1.0"
     inkscape:pageopacity="0.0"
     inkscape:pageshadow="2"
     inkscape:zoom="0.21731111"
     inkscape:cx="885.82677"
     inkscape:cy="885.82677"
     inkscape:document-units="px"
     inkscape:current-layer="layer1"
     showgrid="false"
     inkscape:snap-bbox="true"
     inkscape:bbox-paths="true"
     inkscape:bbox-nodes="true"
     inkscape:snap-bbox-edge-midpoints="true"
     inkscape:snap-bbox-midpoints="true"
     inkscape:object-paths="true"
     inkscape:object-nodes="false"
     inkscape:snap-global="false"
     inkscape:window-width="1280"
     inkscape:window-height="977"
     inkscape:window-x="-4"
     inkscape:window-y="-4"
     inkscape:window-maximized="1" />
  <metadata
     id="metadata7">
    <rdf:RDF>
      <cc:Work
         rdf:about="">
        <dc:format>image/svg+xml</dc:format>
        <dc:type
           rdf:resource="http://purl.org/dc/dcmitype/StillImage" />
        <dc:title></dc:title>
      </cc:Work>
    </rdf:RDF>
  </metadata>
  <g
     inkscape:label="Camada 1"
     inkscape:groupmode="layer"
     id="layer1"
     transform="translate(0,719.29134)">
    <g
       transform="matrix(1.9067698,0,0,1.9067698,692.42456,1397.509)"
       id="g11544">
      <path
         style="opacity:1;fill:#225500;fill-opacity:1;fill-rule:nonzero;stroke:none;stroke-width:3;stroke-linecap:round;stroke-linejoin:miter;stroke-miterlimit:4;stroke-dasharray:none;stroke-dashoffset:0;stroke-opacity:1"
         d="m 0.47223212,-435.23547 c -5.62058702,0.3997 -13.69722912,12.6228 -14.91406112,13.94109 -2.564667,2.77854 -6.045248,-4.1151 -7.875,-2.13277 -1.211138,1.31214 -1.351869,22.00298 -5.908203,17.0667 -1.635142,-1.7715 -13.71151,-14.97505 -17.72461,-12.80117 -0.4881,0.26439 -4.79532,8.53335 -5.90625,8.53335 -2.604369,0 -4.852018,-13.78736 -5.908203,-14.93164 -2.434978,-2.638 -0.842719,17.06441 -3.941406,17.06441 -1.467843,0 -0.655872,-3.55434 -1.96875,-4.26553 -1.81936,-0.98554 -3.895745,-1.04368 -5.90625,-2.13276 -8.871956,-4.80589 -4.42974,18.13101 -5.908203,21.33452 -1.44386,3.12848 -6.634653,1.32718 -9.957032,-0.81358 -0.008,0.30411 0.0059,0.58979 0.109376,0.81358 1.314216,2.8476 13.774045,10.68226 7.878906,17.06898 -4.705388,5.09776 -23.379926,-6.40288 -23.630856,-6.40288 -0.95049,0 1.04227,11.67428 0,12.80347 -0.52187,0.56537 -6.72823,4.88884 -7.87891,4.26552 -4.11782,-2.23059 -9.82502,-21.35935 -13.78516,-17.06899 -1.64109,1.77794 1.6411,8.89275 0,10.67071 -0.98464,1.06677 -4.92355,-1.06677 -5.9082,0 -4.97563,5.39054 6.27292,17.06899 -5.9082,17.06899 -0.87602,0 -6.65485,0.66201 -7.87696,0 -21.74064,-11.77678 -1.6864,-17.98223 -11.8164,-23.46958 -1.355,-0.734 -10.01983,-8.15866 -11.81445,-4.27012 -3.32819,7.21143 7.21612,15.65173 -1.97071,25.60463 -1.6411,1.77794 -8.2046,-1.77794 -9.8457,0 -2.87001,3.10935 8.62124,14.93394 -1.96875,14.93394 -6.87114,0 -12.78512,-10.14274 -19.69336,-6.40058 -1.75083,0.94841 -7.60332,8.82995 -9.84571,6.40058 -2.19298,-2.37586 3.81949,-19.13797 -3.9414,-14.93394 -5.20083,2.81726 -1.7528,10.55127 -5.90625,12.80118 -3.44146,1.86422 -0.73691,-2.13277 -3.93945,-2.13277 -0.58734,0 0.81726,16.18356 0,17.069 -4.44213,4.81252 -7.92761,1.03903 -9.84571,0 -8.38748,-4.54346 -7.51409,6.39828 -7.8789,6.39828 -3.25163,0 -8.78557,-6.89261 -11.81446,-8.53334 -7.6219,-4.12875 -11.55622,23.38198 -13.78515,27.73739 0,1.27686 0.90469,4.79562 1.85546,8.53105 l 282.785162,0 22.15234,0 2.91993,0 0.95703,0 1.95703,0 11.33984,0 0.10157,0 93.802728,0 0.10156,0 11.33789,0 1.95703,0 0.95899,0 2.91992,0 22.15234,0 282.78516,0 c 0.95077,-3.73543 1.85547,-7.25419 1.85547,-8.53105 -2.22893,-4.35541 -6.16521,-31.86614 -13.78711,-27.73739 -3.02889,1.64073 -8.56282,8.53334 -11.81445,8.53334 -0.36481,0 0.50857,-10.94174 -7.87891,-6.39828 -1.9181,1.03903 -5.40358,4.81252 -9.8457,0 -0.81727,-0.88544 0.58734,-17.069 0,-17.069 -3.20255,0 -0.49604,3.99699 -3.9375,2.13277 -4.15345,-2.24991 -0.70738,-9.98392 -5.90821,-12.80118 -7.76089,-4.20403 -1.74647,12.55808 -3.93945,14.93394 -2.24239,2.42937 -8.09487,-5.45217 -9.8457,-6.40058 -6.90824,-3.74216 -12.82221,6.40058 -19.69336,6.40058 -10.58999,0 0.90126,-11.82459 -1.96875,-14.93394 -1.6411,-1.77794 -8.2046,1.77794 -9.8457,0 -9.18682,-9.9529 1.35552,-18.3932 -1.97266,-25.60463 -1.79463,-3.88854 -10.45945,3.53612 -11.81445,4.27012 -10.13,5.48735 9.92423,11.6928 -11.81641,23.46958 -1.2221,0.66201 -7.00094,0 -7.87695,0 -12.18112,0 -0.93062,-11.67845 -5.90625,-17.06899 -0.98465,-1.06677 -4.92551,1.06677 -5.91016,0 -1.64109,-1.77796 1.6411,-8.89277 0,-10.67071 -3.96013,-4.29036 -9.66537,14.8384 -13.7832,17.06899 -1.15067,0.62332 -7.35704,-3.70015 -7.87891,-4.26552 -1.04228,-1.12919 0.95049,-12.80347 0,-12.80347 -0.25093,0 -18.92742,11.50064 -23.63281,6.40288 -5.89514,-6.38672 6.56469,-14.22138 7.87891,-17.06898 0.10317,-0.22379 0.11737,-0.50947 0.10937,-0.81358 -3.32238,2.14076 -8.51317,3.94206 -9.95703,0.81358 -1.47847,-3.20351 2.9657,-26.14041 -5.90625,-21.33452 -2.01051,1.08908 -4.08884,1.14722 -5.9082,2.13276 -1.31288,0.71119 -0.50091,4.26553 -1.96875,4.26553 -3.09869,0 -1.50643,-19.70241 -3.94141,-17.06441 -1.05618,1.14428 -3.30188,14.93164 -5.90625,14.93164 -1.11093,0 -5.4201,-8.26896 -5.9082,-8.53335 -4.0131,-2.17388 -16.08947,11.02967 -17.72461,12.80117 -4.55634,4.93628 -4.69512,-15.75456 -5.90625,-17.0667 -1.82976,-1.98233 -5.31229,4.91131 -7.87696,2.13277 -1.21669,-1.31814 -9.2916,-13.53878 -14.91211,-13.94109 l -0.002,0 c -1.04009,-0.0734 -1.99578,0.25704 -2.80859,1.13762 -0.61651,0.66793 -5.21119,6.26391 -5.91016,8.53565 -0.62274,2.02405 1.39252,4.89195 0,6.40058 -2.75651,2.98637 -9.79829,-12.85055 -13.7832,-8.53334 -1.91427,2.07391 -0.6227,11.29736 -0.18555,13.85835 -1.23404,-4.57662 -9.02939,-14.88794 -13.60156,-7.45777 -0.72826,1.18347 0.58714,2.99332 0,4.26552 -0.56626,1.22695 -6.58245,5.72846 -7.87695,8.53336 -1.86862,4.04891 2.84062,16.12655 0,19.20405 -7.87069,8.52701 -17.46222,-10.66842 -17.72266,-10.66842 -0.61214,0 1.70503,14.65065 -1.9707,10.66842 -1.06043,-1.14886 -2.60084,-16.38222 -5.90625,-12.80118 -2.36682,2.56419 1.37844,10.66612 -1.96875,10.66612 -1.60341,0 -9.2061,-4.96285 -11.81836,-2.13276 -2.81521,3.04996 3.42702,11.45941 5.9082,12.80345 -2.86899,0 -20.22861,9.30728 -9.8457,14.93164 1.84245,0.99805 -0.6155,0.72661 -3.41016,0.3976 -0.0123,-0.1445 -0.0204,-0.37736 -0.0391,-0.3976 -1.56219,-1.69246 -3.5274,-1.23534 -5.43164,-0.13329 -1.06527,-0.22856 -2.18812,-0.60526 -2.89453,0.10343 0.0709,-4.09969 0.0525,-12.87051 -2.00977,-10.63624 -1.20881,1.30961 -2.08393,4.53466 -2.70898,7.65542 -0.62506,-3.12066 -1.49827,-6.34585 -2.70703,-7.65542 -2.062298,-2.23427 -2.080698,6.53655 -2.009768,10.63624 -0.70649,-0.70876 -1.8311,-0.32968 -2.89649,-0.10108 -1.90448,-1.10236 -3.86924,-1.56169 -5.43164,0.131 -0.01868,0.0202 -0.02671,0.253 -0.03906,0.3976 -2.79466,0.32901 -5.25261,0.60045 -3.41015,-0.3976 10.38291,-5.62436 -6.97672,-14.93164 -9.84571,-14.93164 2.48118,-1.34404 8.72342,-9.75349 5.90821,-12.80345 -2.61226,-2.83009 -10.213,2.13276 -11.81641,2.13276 -3.34719,0 0.39807,-8.10193 -1.96875,-10.66612 -3.30541,-3.58104 -4.84777,11.65232 -5.9082,12.80117 -3.67573,3.98224 -1.35661,-10.66841 -1.96875,-10.66841 -0.26044,0 -9.85392,19.19543 -17.72461,10.66841 -2.84062,-3.07749 1.86862,-15.15513 0,-19.20405 -1.2945,-2.80489 -7.3107,-7.3064 -7.87696,-8.53335 -0.58714,-1.2722 0.72826,-3.08205 0,-4.26552 -4.57217,-7.43017 -12.36752,2.88115 -13.60156,7.45777 0.43715,-2.56099 1.73068,-11.78444 -0.18359,-13.85836 -3.98491,-4.3172 -11.0267,11.51972 -13.7832099,8.53335 -1.39252,-1.50863 0.62274,-4.37654 0,-6.40058 -0.69897,-2.27174 -5.29364,-7.86772 -5.91015,-8.53565 -0.81333,-0.88115 -1.76969,-1.21163 -2.81054998,-1.13762 z M 294.35895,-394.37285 c 2.52728,-1.62845 3.97596,-3.45195 1.85937,-3.45195 -2.69254,0 -1.89637,2.02337 -1.85937,3.45195 z m -379.804686,0 c 0.03704,-1.42858 0.833165,-3.45195 -1.859374,-3.45195 -2.116589,0 -0.667912,1.8235 1.859374,3.45195 z"
         id="path11540"
         inkscape:connector-curvature="0" />
      <g
         transform="translate(55.355621,-167.97568)"
         id="g11519">
        <path
           inkscape:connector-curvature="0"
           style="opacity:1;fill:url(#linearGradient11509);fill-opacity:1;fill-rule:nonzero;stroke:none;stroke-width:3;stroke-linecap:round;stroke-linejoin:miter;stroke-miterlimit:4;stroke-dasharray:none;stroke-dashoffset:0;stroke-opacity:1"
           d="m 142.20508,-827.76758 c 0,0 -15.90782,8.22732 -37.53125,23.67774 -22.057672,15.7607 -48.509997,38.34717 -69.677736,68.66211 -10.519029,15.1497 -18.886011,31.62566 -23.994141,48.77929 -0.08464,0.28424 -0.168888,0.56791 -0.251953,0.85156 -5.1672829,17.66253 -6.9432226,34.0592 -6.53125,48.27735 0.5678273,18.31589 4.9068394,32.69384 10.066406,42.59375 7.862987,15.01706 17.819971,20.77599 26.236328,21.10742 -2.030568,-8.02119 -3.562426,-16.1725 -4.501953,-24.40039 -1.408272,-12.38093 -1.442233,-24.85654 -0.140625,-37.14063 1.475232,-13.87346 4.611628,-27.43825 8.966797,-40.49609 5.184285,-15.54181 12.038067,-30.37768 19.894531,-44.55469 6.094326,-10.99476 12.741194,-21.61312 19.826172,-31.91601 -6.676789,10.561 -12.893709,21.40242 -18.53125,32.57031 -7.26664,14.39522 -13.488513,29.34821 -18.001953,44.83008 -3.790919,13.00352 -6.352447,26.38632 -7.273437,39.90039 -0.815145,11.96158 -0.329014,24.01164 1.46875,35.86523 1.689351,11.13852 4.525783,22.09057 8.226562,32.73047 7.2646,20.8856 17.781136,40.4756 28.78125,59.6543 10.975919,19.13683 22.502132,37.99776 31.980472,57.91601 4.7181,9.91483 8.91707,20.08878 12.23047,30.55665 3.38309,10.68806 5.82792,21.68331 7.07617,32.82421 1.33868,11.94787 1.29307,24.04565 -0.0606,35.99219 -1.54532,13.63902 -4.76703,27.06356 -9.18359,40.06055 -5.30411,15.60887 -12.29971,30.6126 -20.29297,45.03125 -9.845566,17.75989 -21.202163,34.65385 -33.384768,50.90039 -5.453887,7.2732 -10.476262,14.91796 -14.294921,23.16797 -3.754367,8.11111 -6.274885,16.86267 -6.681641,25.79101 3.946705,-0.10452 7.889647,-0.14991 11.830078,-0.13672 0.278885,-6.85865 2.324109,-13.93689 5.34961,-20.79296 3.226706,-7.26392 7.769398,-14.27322 12.847656,-21.24024 12.270779,-16.66742 23.744106,-34.09516 33.728516,-52.48047 8.11217,-14.9275 15.21942,-30.57048 20.62891,-46.93164 4.50858,-13.63479 7.76099,-27.79496 9.28125,-42.2539 1.32454,-12.67631 1.25658,-25.50091 -0.27344,-38.16993 -1.43552,-11.80908 -4.11155,-23.37712 -7.76367,-34.54882 -3.57614,-10.93292 -8.02056,-21.45297 -12.97266,-31.60547 -4.01496,-8.22387 -8.33834,-16.20552 -12.78711,-24.05078 -2.04516,-9.22567 -4.59244,-24.847 -4.85156,-30.51758 -0.29993,-6.15255 0.2001,-12.38273 1.48242,-18.45899 2.36324,-11.71624 8.05938,-23.19382 14.80859,-34.44531 7.16467,-11.81326 15.66501,-23.36785 23.69532,-35.71484 8.44074,-12.9109 16.21948,-26.73844 21.54882,-41.8125 1.3655,-3.94161 2.5498,-7.9121 3.58008,-11.90039 0.15458,0.019 0.31024,0.0378 0.46485,0.0566 l 0,-0.006 c 8.85028,1.03737 17.38042,-0.88475 24.46679,-7.50781 7.01981,-6.56084 12.34622,-17.6496 13.5293,-32.7168 0.28965,-3.68887 0.0708,-7.50186 -0.55859,-11.34375 -2.38685,-16.06236 -11.47028,-31.9498 -19.26368,-44.39258 -7.77221,-12.40896 -14.38867,-21.98828 -14.38867,-21.98828 0,0 -8.7554,7.65273 -18.17969,19.95117 -9.40446,12.27258 -19.22585,28.54793 -23.30859,42.01172 -1.04635,3.26635 -1.74483,6.41127 -2.00195,9.39648 -1.04799,12.16752 1.18479,20.60655 5.57226,27.24219 4.34485,6.5712 11.19497,11.81754 19.45704,15.33399 6.06222,-15.51083 9.51334,-32.64792 12.16992,-49.90235 1.25609,-8.2126 2.32907,-16.49732 3.43945,-24.77148 -0.3361,8.30566 -0.63338,16.61493 -1.11914,24.9082 -1.25017,21.33565 -3.71994,42.86019 -11.21875,62.86914 -5.28085,14.09221 -13.03985,27.13227 -21.52344,39.56641 -8.10546,11.87972 -16.9014,23.2888 -24.66015,35.40039 -7.39998,11.55131 -13.824263,23.91649 -17.003911,37.26172 -1.652425,6.93557 -2.416046,14.08338 -2.257812,21.21094 0.02181,0.98215 0.06159,1.96294 0.117187,2.94335 -1.350327,-2.27741 -2.712745,-4.56214 -4.046875,-6.83593 -11.077415,-18.9541 -21.567718,-37.98309 -28.728515,-58.04688 -1.081495,-3.01849 -2.090438,-6.05951 -3.019532,-9.12109 0.133443,-0.0937 0.266832,-0.18778 0.400391,-0.28125 l -0.0059,-0.0137 c 6.988531,-4.98304 11.461805,-13.26165 15.162109,-25.03711 2.628609,-8.40743 4.435786,-17.19998 7.140625,-29.11914 2.00035,-8.97884 4.462031,-19.24264 8.019531,-31.49805 0.05736,-0.19786 0.113833,-0.39493 0.171875,-0.59375 4.239328,-14.52182 6.433662,-22.50998 11.585938,-39.41602 9.417459,-30.98174 18.792489,-56.73076 29.037109,-83.13281 9.28144,-23.91979 15.99805,-40.59961 15.99805,-40.59961 z"
           id="path11404" />
        <path
           style="opacity:1;fill:url(#linearGradient11501);fill-opacity:1;fill-rule:nonzero;stroke:none;stroke-width:3;stroke-linecap:round;stroke-linejoin:miter;stroke-miterlimit:4;stroke-dasharray:none;stroke-dashoffset:0;stroke-opacity:1"
           d="m 204.15396,-619.78568 c -5.63004,18.53898 -9.41932,29.24712 -12.98885,42.06068 -3.04064,11.29107 -4.93797,20.23483 -4.96786,28.53221 -0.029,8.05759 1.7869,14.54451 5.43955,19.61791 9.10274,-10.84159 17.62298,-22.0642 24.93817,-34.03353 9.90733,-16.17736 17.78614,-33.73123 23.6629,-52.01972 0,0 0,0 0,0 5.44677,-16.94014 9.21333,-34.52059 12.35541,-52.22166 1.11952,-6.30911 2.16575,-12.63688 3.19887,-18.96761 -0.77051,6.36256 -1.55427,12.72325 -2.41248,19.07395 -2.40806,17.81922 -5.45046,35.58643 -10.23039,52.91854 0,0 -1e-5,2e-5 -1e-5,2e-5 -5.16191,18.71741 -12.40452,36.8774 -21.83218,53.85098 0,0 -1e-5,1e-5 -1e-5,1e-5 -8.73393,15.72488 -19.39291,30.30991 -30.68819,44.31201 0,0 -2e-5,2e-5 -2e-5,2e-5 -12.47163,15.46025 -25.78797,30.21897 -39.24878,44.82773 -27.93622,30.31853 -56.791648,59.9302 -81.758225,92.7405 -11.698063,15.37322 -22.527004,31.47238 -31.298864,48.68438 2e-6,0 -7e-6,1e-5 -7e-6,1e-5 -8.152941,15.99751 -14.489734,33.03019 -17.438028,50.74189 -2.933983,17.626 -2.304124,35.84944 2.028367,53.18409 5.059763,20.24434 14.893998,39.08585 27.098365,56.01061 3.038477,-2.51895 6.086574,-5.0268 9.144248,-7.52331 -11.444723,-15.74213 -20.681472,-32.95065 -25.38193,-51.20062 -4.135192,-15.7447 -4.895932,-32.48143 -2.376343,-48.71981 2.502043,-16.40037 8.33581,-32.50077 15.939641,-47.89774 8.210845,-16.58162 18.568677,-32.299 29.8739,-47.50334 24.144636,-32.46066 52.543476,-62.17129 80.271056,-92.89289 0,0 1e-5,-2e-5 1e-5,-2e-5 13.35636,-14.78376 26.64207,-29.81208 39.1403,-45.61549 2.29404,-2.89685 4.56474,-5.82466 6.80124,-8.78774 0.15416,0.053 0.30834,0.10599 0.46255,0.1589 0,0 0.008,-0.0124 0.008,-0.0124 5.76943,1.92294 12.7556,1.68798 20.76764,-1.78033 7.89273,-3.41667 17.34019,-10.27284 26.88366,-21.93262 9.92065,-12.21745 20.02654,-29.86628 27.04319,-53.03711 0.72158,-2.38288 1.38514,-4.81174 1.98965,-7.28151 4.69778,-19.37738 5.62547,-39.43611 4.48629,-58.95982 -1.09964,-19.33085 -4.16518,-38.78031 -6.5702,-54.48885 -2.69545,-17.65767 -4.19842,-28.09908 -5.49394,-39.98095 -1.1031,-10.11708 -1.52324,-16.33042 -1.52324,-16.33042 0,0 -3.92353,4.80211 -9.61783,13.62941 -5.92052,9.17798 -12.86281,21.41693 -20.02877,37.38631 -7.33236,16.28252 -13.69165,33.36364 -20.02609,51.22963 -5.42772,15.17576 -12.04404,34.62009 -15.98758,46.88922 -0.57313,1.79898 -1.12914,3.57966 -1.66342,5.33896 0,0 -6e-5,-4.7e-4 -6e-5,-4.7e-4 z"
           id="path11413"
           inkscape:connector-curvature="0" />
        <path
           inkscape:connector-curvature="0"
           style="opacity:1;fill:url(#linearGradient11493);fill-opacity:1;fill-rule:nonzero;stroke:none;stroke-width:3;stroke-linecap:round;stroke-linejoin:miter;stroke-miterlimit:4;stroke-dasharray:none;stroke-dashoffset:0;stroke-opacity:1"
           d="m -217.44531,-824.16016 c 0,0 1.56976,11.08106 6.23437,28.31836 4.86701,17.98526 12.3674,39.80302 23.59961,64.31055 12.7479,27.89075 29.05742,56.54995 45.71289,78.06055 1.1364,1.46767 2.2594,2.90544 3.36914,4.3125 17.4806,22.23071 32.18643,37.51762 44.203128,46.83593 12.189201,9.45208 22.441462,13.45632 31.275391,12.94141 1.332012,-0.078 2.62927,-0.25911 3.890625,-0.54102 -0.238882,-0.44577 -0.478433,-0.89084 -0.71875,-1.33593 -14.832319,-27.453 -32.388719,-53.66406 -50.673824,-79.42383 -17.61214,-24.80507 -35.96101,-49.20636 -53.50586,-74.13867 18.47412,24.22373 37.70784,47.85918 56.28515,72.00195 19.288978,25.06773 37.930705,50.70446 54.044924,77.91992 15.921424,26.88994 29.314949,55.41493 37.902344,85.46094 6.0423664,21.14095 9.6364859,42.94148 11.4218751,64.85742 1.7344143,21.29019 1.8125325,42.68428 1.3496094,64.04102 -0.010779,0.49723 -0.027776,0.99492 -0.039063,1.49218 -3.7805436,-11.91953 -8.5610465,-23.56994 -14.4726565,-34.71093 -8.391413,-15.74283 -18.966172,-30.16128 -31.107422,-42.97071 -11.869818,-12.50369 -24.98297,-23.43806 -38.521484,-33.38867 -14.093477,-10.37038 -28.612467,-19.78786 -42.986327,-29.07031 -15.28873,-9.8818 -30.47883,-19.66599 -45.10938,-30.04688 -15.78271,-11.1997 -30.98676,-23.12139 -45.14062,-36.125 -8.52283,-7.82655 -16.68256,-16.05528 -24.42774,-24.66015 0.088,-0.13371 0.17557,-0.26675 0.26368,-0.40039 l -0.008,-0.008 c 5.92722,-9.1364 6.62636,-21.29803 1.55274,-37.43946 -3.62653,-11.47814 -9.97464,-24.55464 -19.41211,-41.55664 -3.62927,-6.53828 -7.97811,-13.27845 -12.67773,-20.07617 -8.69095,-13.0974 -25.90175,-33.78808 -33.35743,-44.36523 -9.10978,-12.67696 -15.05452,-24.00844 -19.14453,-34.69336 -3.82466,-9.9917 -5.19726,-16.95118 -5.19726,-16.95118 0,0 -4.44288,5.42823 -9.24414,16.26758 -4.8818,11.02118 -9.62305,27.12321 -9.75391,47.07813 -0.23323,22.01769 3.9294,44.75411 10.25195,64.4414 2.99788,9.31143 6.71098,18.12529 11.12891,26.07227 11.32986,20.37918 23.71061,34.32241 34.75781,42.78906 16.34274,12.50618 30.04962,13.54275 39.77734,8.66797 -6.38112,-8.0025 -12.42365,-16.25373 -18.09765,-24.73047 -14.35389,-21.45382 -26.33193,-44.25986 -36.2168,-67.79297 -5.37364,-12.78288 -10.66404,-25.71735 -14.76953,-38.93554 4.73883,12.98718 10.62362,25.57944 16.5957,38.0625 10.95221,22.89343 23.89142,44.86041 39.00196,65.25 12.99268,17.53177 27.59318,33.86463 43.48632,48.8164 14.30025,13.4532 29.62937,25.78079 45.50586,37.33008 8.90616,6.47875 17.99167,12.70444 27.13282,18.84766 -0.1525,-0.0214 -0.30445,-0.0478 -0.45703,-0.0684 -12.71971,-1.6588 -25.2,-0.7864 -36.99805,1.36718 -12.88819,2.31566 -25.21677,5.93206 -37.13477,9.94532 -12.53561,4.20737 -24.73194,8.86321 -36.83984,13.34375 -9.78091,3.61342 -19.49148,7.13659 -29.25977,10.18164 -0.062,-0.14281 -0.12354,-0.28686 -0.18554,-0.42969 l -0.004,0.004 c -2.69354,-6.14102 -6.32011,-11.32479 -10.83008,-15.2461 -7.79256,-6.78068 -17.00636,-9.08618 -27.97851,-8.38086 -0.72539,0.0466 -1.44802,0.13291 -2.17188,0.25391 -6.60881,1.02693 -13.20129,6.20509 -21.25586,9.91602 -4.64379,2.21558 -9.69905,3.8302 -14.99023,4.79492 -11.38967,2.08502 -21.56445,0.6289 -21.56445,0.6289 0,0 -1.25745,10.07307 4.86523,23.91993 2.86551,6.43691 7.3313,13.34641 13.88867,19.58203 12.04358,11.18583 28.1009,18.447 42.55274,18.54687 1.45138,0.0227 2.87414,-0.0194 4.26171,-0.125 20.51925,-1.56172 31.09542,-10.40081 35.30469,-19.64258 2.75277,-5.99744 3.23855,-12.70392 2.19531,-19.60351 -2.32592,0.42269 -4.65959,0.82214 -6.99804,1.19531 -11.96418,1.92318 -24.22843,3.11676 -36.375,2.49609 -10.19129,-0.51097 -20.33677,-2.46414 -29.45508,-6.39062 9.41708,2.98463 19.44151,3.87472 29.32031,3.42578 11.79485,-0.53585 23.44658,-2.85169 34.86719,-5.83398 12.34095,-3.22252 24.45227,-7.25724 36.51758,-11.38868 12.267,-4.20048 24.48974,-8.53483 36.87695,-12.36328 11.79352,-3.64491 23.75074,-6.86622 35.94922,-8.75195 11.15582,-1.72449 22.5736,-2.312 33.72461,-0.55664 7.73402,1.21745 20.01573,3.79143 29.6582,7.49023 11.04185,7.37684 22.00281,14.87303 32.601563,22.86914 13.096981,9.88089 25.638572,20.56379 36.785157,32.60157 11.389278,12.29984 21.242356,26.04481 28.953125,40.92968 8.468847,16.34822 19.0095363,49.7906 23.2128907,69.06446 -0.8956878,29.67722 -1.4245123,59.34968 1.2636719,88.89062 0.7559811,8.30719 2.9424968,16.44187 5.9375,24.22657 3.152242,8.19342 7.2035564,16.02387 11.7792964,23.51562 8.793217,14.39692 19.451982,27.61823 31.248047,39.67773 2.614911,-2.95819 5.239059,-5.90697 7.873047,-8.84765 -11.135385,-11.25842 -21.176528,-23.49529 -29.433594,-36.74414 -4.353677,-6.99634 -8.178944,-14.18144 -11.101563,-21.58789 -2.756387,-7.0391 -4.7900924,-14.16757 -5.4746084,-21.22461 -4.280302,-41.95647 -1.7591243,-85.05777 -1.2402343,-128.66406 0.275368,-21.52428 -0.012883,-43.24369 -1.9746094,-64.98633 -2.020854,-22.39619 -5.9218922,-44.73294 -12.3300782,-66.44532 -9.0013317,-30.36065 -22.6473057,-58.95914 -38.7558597,-85.75 0.104732,-0.12641 0.209793,-0.25436 0.314453,-0.38085 l -0.0078,-0.0117 c 0.642047,-0.79095 1.235157,-1.63642 1.779297,-2.53711 4.594337,-7.59826 5.63299,-19.3221 0.857422,-35.52735 -4.808251,-16.31617 -15.317264,-36.53385 -33.427734,-60.57422 -1.127477,-1.50092 -2.283556,-3.01483 -3.466797,-4.54296 -17.560785,-22.67939 -41.645812,-43.97979 -64.417972,-62.89649 -148.1111,-123.3675 91.04192,76.82652 -50.95117,-41.64648 -13.27706,-11.07782 -21.66992,-18.53321 -21.66992,-18.53321 z"
           id="path11422" />
        <path
           inkscape:connector-curvature="0"
           style="opacity:1;fill:url(#linearGradient11517);fill-opacity:1;fill-rule:nonzero;stroke:none;stroke-width:3;stroke-linecap:round;stroke-linejoin:miter;stroke-miterlimit:4;stroke-dasharray:none;stroke-dashoffset:0;stroke-opacity:1"
           d="m 410.60742,-642.11523 c 0,0 -2.38583,5.50946 -5.18359,15.30273 -3.68743,12.90749 -4.94969,20.73852 -8.96875,38.96875 -3.67241,15.69425 -7.86736,32.01697 -14.93555,42.7793 -7.80917,14.5966 -15.65557,26.05775 -23.1582,38.02929 -1.82755,2.91612 -3.63663,5.69689 -5.38281,8.32422 -15.40221,23.63624 -25.15932,35.07919 -29.29102,51.06055 -1.86829,7.15217 -1.778,13.49529 0.20703,19.12891 3.20824,-2.0619 6.37979,-4.17626 9.51172,-6.34961 17.68749,-12.28493 34.13206,-26.4724 47.61523,-43.28711 13.93095,-17.34363 24.56433,-37.58418 31,-59.28125 1.94033,-6.51852 3.16229,-13.23615 3.87696,-20.05274 -0.41874,6.83475 -1.3506,13.61561 -3.01367,20.26953 -5.5097,22.04838 -15.33054,43.0035 -28.76368,61.33594 -13.00163,17.7439 -29.14989,33.02834 -46.66015,46.34766 -18.24581,13.87876 -37.95291,25.73436 -58.0586,36.75195 -20.71691,11.35248 -41.90647,21.81534 -62.95312,32.54688 -20.79538,10.60339 -41.49468,21.45092 -61.34375,33.73632 -18.96314,11.73702 -37.19076,24.82503 -53.23047,40.32032 -15.666682,15.13493 -29.109369,32.69859 -38.613281,52.29882 -5.012972,10.33846 -8.94422,21.19499 -11.791016,32.32618 -3.124798,12.2182 -4.95139,24.75476 -5.699219,37.34375 3.945968,-0.0196 7.892465,-0.0252 11.837891,-0.0176 0.610499,-11.67915 2.180348,-23.25857 4.927734,-34.49414 2.548172,-10.44183 6.106538,-20.63472 10.677735,-30.33203 8.608369,-18.36696 21.130826,-35.06893 35.867186,-49.66211 15.13017,-14.9851 32.66391,-27.83494 51.11328,-39.5586 11.58339,-7.3488 23.54648,-14.21991 35.71094,-20.875 24.27744,-2.14223 59.46347,-1.69392 82.8457,-0.12109 23.27782,1.60169 47.05101,4.05016 71.24024,3.88672 11.6492,-0.0815 23.39384,-0.84096 35.05664,-2.67774 0.68472,-0.10802 1.36914,-0.22012 2.05273,-0.33593 0.0453,0.1494 0.0913,0.29985 0.13672,0.44922 l 0.006,-0.002 c 2.3255,7.52691 6.59182,13.98572 13.67969,17.98047 6.99927,3.94482 17.03701,5.53543 29.66015,2.38867 3.2487,-0.82206 6.64011,-1.95448 10.12891,-3.43359 10.63658,-4.50949 20.06846,-13.40673 27.15625,-23.90625 8.34666,-12.4304 12.69137,-25.66002 14.94336,-36.16016 2.21237,-10.31543 2.39453,-17.41601 2.39453,-17.41601 0,0 -7.12537,0.48021 -17.07226,1.03515 -14.74519,0.82264 -17.73392,0.76857 -33.63672,1.34571 -9.38724,0.3338 -17.97984,0.90323 -24.14063,3.51562 -2.09817,0.88995 -4.00722,1.81376 -5.76367,2.79297 -6.89831,3.8995 -11.74848,8.81005 -15.01953,15.08398 -3.23361,6.20211 -4.82062,13.63731 -4.66211,21.69141 10.47255,-0.49419 20.96887,-1.95457 31.27148,-4.56836 11.89043,-3.01038 23.55259,-7.56997 34.6836,-13.4043 1.62689,-0.85269 3.24354,-1.73223 4.84765,-2.63671 -1.50453,1.04756 -3.0244,2.07437 -4.56054,3.07617 -10.51096,6.85484 -21.7754,12.57471 -33.58203,16.82617 -10.84411,3.90493 -22.12447,6.56134 -33.54688,8.10937 -11.22583,1.52141 -22.57775,1.9921 -33.90625,1.82422 -23.5552,-0.34905 -46.98324,-3.32396 -70.44531,-5.47656 -20.04637,-1.83926 -40.21177,-3.04605 -60.3125,-2.38477 0.38341,-0.20095 0.76289,-0.40462 1.14648,-0.60546 20.86617,-10.91635 42.02855,-21.64486 62.83203,-33.32422 16.78968,-9.41671 33.38921,-19.49511 49.16602,-30.89649 0.12973,0.0972 0.25884,0.19582 0.38867,0.29297 l 0.0117,-0.01 c 4.58713,3.37179 10.65992,5.25722 18.37305,4.8457 14.17061,-0.75993 39.65946,-10.71531 64.06445,-41.63477 3.05441,-3.92209 6.04657,-8.17274 8.91797,-12.75976 11.4692,-18.32182 18.38765,-40.54718 20.09766,-63.58985 1.8815,-25.24613 -4.1471,-45.90009 -10.79297,-62 -4.7097,-11.76422 -14.12879,-30.8856 -16.62891,-36.27929 -4.11485,-8.87725 -6.33008,-14.48242 -6.33008,-14.48242 z"
           id="path11431" />
      </g>
      <path
         inkscape:connector-curvature="0"
         id="path11527"
         d="m 0.47223212,-414.24001 c -5.62058702,0.33968 -13.69722912,10.72732 -14.91406112,11.84765 -2.564667,2.36131 -6.045248,-3.49716 -7.875,-1.8125 -1.211138,1.1151 -1.351869,18.69894 -5.908203,14.50391 -1.635142,-1.50549 -13.71151,-12.72635 -17.72461,-10.87891 -0.4881,0.22469 -4.79532,7.25196 -5.90625,7.25196 -2.604369,0 -4.852018,-11.71701 -5.908203,-12.68946 -2.434978,-2.24187 -0.842719,14.50196 -3.941406,14.50196 -1.467843,0 -0.655872,-3.02061 -1.96875,-3.625 -1.81936,-0.83755 -3.895745,-0.88696 -5.90625,-1.8125 -8.871956,-4.08422 -4.42974,15.4084 -5.908203,18.13086 -1.44386,2.6587 -6.634653,1.12789 -9.957032,-0.69141 -0.008,0.25845 0.0059,0.50123 0.109376,0.69141 1.314216,2.42 13.774045,9.07818 7.878906,14.50585 -4.705388,4.33227 -23.379926,-5.4414 -23.630856,-5.4414 -0.95049,0 1.04227,9.92123 0,10.88086 -0.52187,0.48047 -6.72823,4.15472 -7.87891,3.625 -4.11782,-1.89564 -9.82502,-18.15197 -13.78516,-14.50586 -1.64109,1.51096 1.6411,7.55739 0,9.06836 -0.98464,0.90658 -4.92355,-0.90658 -5.9082,0 -4.97563,4.58108 6.27292,14.50586 -5.9082,14.50586 -0.87602,0 -6.65485,0.5626 -7.87696,0 -21.74064,-10.00834 -1.6864,-15.28196 -11.8164,-19.94532 -1.355,-0.62378 -10.01983,-6.93353 -11.81445,-3.6289 -3.32819,6.12854 7.21612,13.30142 -1.97071,21.75976 -1.6411,1.51096 -8.2046,-1.51096 -9.8457,0 -2.87001,2.64244 8.62124,12.69141 -1.96875,12.69141 -6.87114,0 -12.78512,-8.61967 -19.69336,-5.43945 -1.75083,0.806 -7.60332,7.50402 -9.84571,5.43945 -2.19298,-2.01909 3.81949,-16.26415 -3.9414,-12.69141 -5.20083,2.39421 -1.7528,8.96686 -5.90625,10.87891 -3.44146,1.58429 -0.73691,-1.8125 -3.93945,-1.8125 -0.58734,0 0.81726,13.75338 0,14.50586 -4.44213,4.08986 -7.92761,0.88301 -9.84571,0 -8.38748,-3.8612 -7.51409,5.4375 -7.8789,5.4375 -3.25163,0 -8.78557,-5.8576 -11.81446,-7.25195 -7.6219,-3.50876 -11.55622,19.87087 -13.78515,23.57226 0,1.08512 0.90469,4.07549 1.85546,7.25 l 282.785162,0 22.15234,0 2.91993,0 0.95703,0 1.95703,0 11.33984,0 0.10157,0 93.802728,0 0.10156,0 11.33789,0 1.95703,0 0.95899,0 2.91992,0 22.15234,0 282.78516,0 c 0.95077,-3.17451 1.85547,-6.16488 1.85547,-7.25 -2.22893,-3.70139 -6.16521,-27.08102 -13.78711,-23.57226 -3.02889,1.39435 -8.56282,7.25195 -11.81445,7.25195 -0.36481,0 0.50857,-9.2987 -7.87891,-5.4375 -1.9181,0.88301 -5.40358,4.08986 -9.8457,0 -0.81727,-0.75248 0.58734,-14.50586 0,-14.50586 -3.20255,0 -0.49604,3.39679 -3.9375,1.8125 -4.15345,-1.91205 -0.70738,-8.4847 -5.90821,-10.87891 -7.76089,-3.57274 -1.74647,10.67232 -3.93945,12.69141 -2.24239,2.06457 -8.09487,-4.63345 -9.8457,-5.43945 -6.90824,-3.18022 -12.82221,5.43945 -19.69336,5.43945 -10.58999,0 0.90126,-10.04897 -1.96875,-12.69141 -1.6411,-1.51096 -8.2046,1.51096 -9.8457,0 -9.18682,-8.45834 1.35552,-15.63122 -1.97266,-21.75976 -1.79463,-3.30463 -10.45945,3.00512 -11.81445,3.6289 -10.13,4.66336 9.92423,9.93698 -11.81641,19.94532 -1.2221,0.5626 -7.00094,0 -7.87695,0 -12.18112,0 -0.93062,-9.92478 -5.90625,-14.50586 -0.98465,-0.90658 -4.92551,0.90658 -5.91016,0 -1.64109,-1.51097 1.6411,-7.5574 0,-9.06836 -3.96013,-3.64611 -9.66537,12.61022 -13.7832,14.50586 -1.15067,0.52972 -7.35704,-3.14453 -7.87891,-3.625 -1.04228,-0.95963 0.95049,-10.88086 0,-10.88086 -0.25093,0 -18.92742,9.77367 -23.63281,5.4414 -5.89514,-5.42767 6.56469,-12.08585 7.87891,-14.50585 0.10317,-0.19018 0.11737,-0.43296 0.10937,-0.69141 -3.32238,1.8193 -8.51317,3.35011 -9.95703,0.69141 -1.47847,-2.72246 2.9657,-22.21508 -5.90625,-18.13086 -2.01051,0.92554 -4.08884,0.97495 -5.9082,1.8125 -1.31288,0.60439 -0.50091,3.625 -1.96875,3.625 -3.09869,0 -1.50643,-16.74383 -3.94141,-14.50196 -1.05618,0.97245 -3.30188,12.68946 -5.90625,12.68946 -1.11093,0 -5.4201,-7.02727 -5.9082,-7.25196 -4.0131,-1.84744 -16.08947,9.37342 -17.72461,10.87891 -4.55634,4.19503 -4.69512,-13.38881 -5.90625,-14.50391 -1.82976,-1.68466 -5.31229,4.17381 -7.87696,1.8125 -1.21669,-1.1202 -9.2916,-11.50575 -14.91211,-11.84765 l -0.002,0 c -1.04009,-0.0624 -1.99578,0.21844 -2.80859,0.96679 -0.61651,0.56763 -5.21119,5.3233 -5.91016,7.25391 -0.62274,1.72011 1.39252,4.15736 0,5.43945 -2.75651,2.53793 -9.79829,-10.92087 -13.7832,-7.25195 -1.91427,1.76249 -0.6227,9.60092 -0.18555,11.77734 -1.23404,-3.88938 -9.02939,-12.65232 -13.60156,-6.33789 -0.72826,1.00576 0.58714,2.54384 0,3.625 -0.56626,1.04271 -6.58245,4.86826 -7.87695,7.25196 -1.86862,3.44092 2.84062,13.70494 0,16.32031 -7.87069,7.24657 -17.46222,-9.06641 -17.72266,-9.06641 -0.61214,0 1.70503,12.45066 -1.9707,9.06641 -1.06043,-0.97634 -2.60084,-13.92221 -5.90625,-10.87891 -2.36682,2.17914 1.37844,9.06446 -1.96875,9.06446 -1.60341,0 -9.2061,-4.21761 -11.81836,-1.8125 -2.81521,2.59197 3.42702,9.73863 5.9082,10.88085 -2.86899,0 -20.22861,7.90967 -9.8457,12.68946 1.84245,0.84818 -0.6155,0.6175 -3.41016,0.33789 -0.0123,-0.1228 -0.0204,-0.32069 -0.0391,-0.33789 -1.56219,-1.43832 -3.5274,-1.04984 -5.43164,-0.11328 -1.06527,-0.19424 -2.18812,-0.51437 -2.89453,0.0879 0.0709,-3.48407 0.0525,-10.93783 -2.00977,-9.03907 -1.20881,1.11296 -2.08393,3.85372 -2.70898,6.50586 -0.62506,-2.65205 -1.49827,-5.39294 -2.70703,-6.50586 -2.062298,-1.89876 -2.080698,5.555 -2.009768,9.03907 -0.70649,-0.60233 -1.8311,-0.28017 -2.89649,-0.0859 -1.90448,-0.93683 -3.86924,-1.32718 -5.43164,0.11133 -0.01868,0.0172 -0.02671,0.21501 -0.03906,0.33789 -2.79466,0.27961 -5.25261,0.51029 -3.41015,-0.33789 10.38291,-4.77979 -6.97672,-12.68946 -9.84571,-12.68946 2.48118,-1.14222 8.72342,-8.28888 5.90821,-10.88085 -2.61226,-2.40511 -10.213,1.8125 -11.81641,1.8125 -3.34719,0 0.39807,-6.88532 -1.96875,-9.06446 -3.30541,-3.0433 -4.84777,9.90257 -5.9082,10.87891 -3.67573,3.38425 -1.35661,-9.06641 -1.96875,-9.06641 -0.26044,0 -9.85392,16.31298 -17.72461,9.06641 -2.84062,-2.61537 1.86862,-12.87939 0,-16.32031 -1.2945,-2.3837 -7.3107,-6.20925 -7.87696,-7.25196 -0.58714,-1.08116 0.72826,-2.61924 0,-3.625 -4.57217,-6.31443 -12.36752,2.44851 -13.60156,6.33789 0.43715,-2.17642 1.73068,-10.01485 -0.18359,-11.77734 -3.98491,-3.66892 -11.0267,9.78988 -13.7832099,7.25195 -1.39252,-1.28209 0.62274,-3.71934 0,-5.43945 -0.69897,-1.93061 -5.29364,-6.68628 -5.91015,-7.25391 -0.81333,-0.74883 -1.76969,-1.02969 -2.81054998,-0.96679 z M 294.35895,-379.51345 c 2.52728,-1.38391 3.97596,-2.93359 1.85937,-2.93359 -2.69254,0 -1.89637,1.71953 -1.85937,2.93359 z m -379.804686,0 c 0.03704,-1.21406 0.833165,-2.93359 -1.859374,-2.93359 -2.116589,0 -0.667912,1.54968 1.859374,2.93359 z"
         style="opacity:1;fill:url(#linearGradient11529);fill-opacity:1;fill-rule:nonzero;stroke:none;stroke-width:3;stroke-linecap:round;stroke-linejoin:miter;stroke-miterlimit:4;stroke-dasharray:none;stroke-dashoffset:0;stroke-opacity:1" />
    </g>
  </g>
</svg>
